<svg xmlns="http://www.w3.org/2000/svg" viewBox="0 0 64 64" role="img" aria-label="Career-Assistant-AI">
  <defs>
    <linearGradient id="g" x1="0" y1="0" x2="1" y2="1">
      <stop offset="0" stop-color="#6366f1"/>
      <stop offset="1" stop-color="#8b5cf6"/>
    </linearGradient>
  </defs>
  <rect width="64" height="64" rx="14" fill="url(#g)"/>
  <path d="M20 25h24a4 4 0 0 1 4 4v15a4 4 0 0 1-4 4H20a4 4 0 0 1-4-4V29a4 4 0 0 1 4-4z"
        fill="none" stroke="#ffffff" stroke-width="3.5" stroke-linejoin="round"/>
  <path d="M26 25v-3a4 4 0 0 1 4-4h4a4 4 0 0 1 4 4v3"
        fill="none" stroke="#ffffff" stroke-width="3.5" stroke-linecap="round"/>
  <path d="M16 36h32" stroke="#ffffff" stroke-width="3.5" stroke-linecap="round"/>
</svg>
